<svg width="78" height="77" viewBox="0 0 78 77" fill="none" xmlns="http://www.w3.org/2000/svg">
<g id="ph:x-thin" clip-path="url(#clip0_101_209)">
<path id="Vector" d="M60.4023 37.5867C60.6277 37.5867 60.8438 37.6762 61.0032 37.8356C61.1626 37.995 61.2521 38.2111 61.2521 38.4365C61.2521 38.6619 61.1626 38.8781 61.0032 39.0374C60.8438 39.1968 60.6277 39.2863 60.4023 39.2863L39.6315 39.2863L39.6316 60.0571C39.6315 60.2825 39.542 60.4986 39.3826 60.658C39.2233 60.8173 39.0071 60.9069 38.7817 60.9069C38.5564 60.9069 38.3402 60.8173 38.1808 60.658C38.0215 60.4986 37.9319 60.2825 37.9319 60.0571L37.9319 39.2863L17.1612 39.2863C16.9358 39.2863 16.7197 39.1968 16.5603 39.0374C16.4009 38.8781 16.3114 38.6619 16.3114 38.4365C16.3114 38.2111 16.4009 37.995 16.5603 37.8356C16.7197 37.6762 16.9358 37.5867 17.1612 37.5867L37.9319 37.5867L37.9319 16.816C37.9319 16.7044 37.9539 16.5939 37.9966 16.4908C38.0393 16.3877 38.1019 16.294 38.1808 16.2151C38.2597 16.1362 38.3534 16.0736 38.4565 16.0309C38.5596 15.9881 38.6701 15.9662 38.7817 15.9662C38.8933 15.9662 39.0038 15.9881 39.1069 16.0309C39.2101 16.0736 39.3037 16.1362 39.3826 16.2151C39.4616 16.294 39.5242 16.3877 39.5669 16.4908C39.6096 16.5939 39.6315 16.7044 39.6316 16.816L39.6315 37.5867L60.4023 37.5867Z" fill="white"/>
</g>
<defs>
<clipPath id="clip0_101_209">
<rect width="54.3575" height="54.3575" fill="white" transform="translate(0.345215 38.4365) rotate(-45)"/>
</clipPath>
</defs>
</svg>
