<svg width="33" height="33" viewBox="0 0 33 33" fill="none" xmlns="http://www.w3.org/2000/svg">
<g id="fluent:calendar-rtl-20-regular">
<path id="Vector" d="M21.45 18.15C21.0124 18.15 20.5927 17.9762 20.2833 17.6667C19.9738 17.3573 19.8 16.9376 19.8 16.5C19.8 16.0624 19.9738 15.6427 20.2833 15.3333C20.5927 15.0239 21.0124 14.85 21.45 14.85C21.8876 14.85 22.3073 15.0239 22.6167 15.3333C22.9262 15.6427 23.1 16.0624 23.1 16.5C23.1 16.9376 22.9262 17.3573 22.6167 17.6667C22.3073 17.9762 21.8876 18.15 21.45 18.15ZM19.8 21.45C19.8 21.8876 19.9738 22.3073 20.2833 22.6167C20.5927 22.9262 21.0124 23.1 21.45 23.1C21.8876 23.1 22.3073 22.9262 22.6167 22.6167C22.9262 22.3073 23.1 21.8876 23.1 21.45C23.1 21.0124 22.9262 20.5927 22.6167 20.2833C22.3073 19.9739 21.8876 19.8 21.45 19.8C21.0124 19.8 20.5927 19.9739 20.2833 20.2833C19.9738 20.5927 19.8 21.0124 19.8 21.45ZM16.5 18.15C16.0624 18.15 15.6427 17.9762 15.3333 17.6667C15.0238 17.3573 14.85 16.9376 14.85 16.5C14.85 16.0624 15.0238 15.6427 15.3333 15.3333C15.6427 15.0239 16.0624 14.85 16.5 14.85C16.9376 14.85 17.3573 15.0239 17.6667 15.3333C17.9762 15.6427 18.15 16.0624 18.15 16.5C18.15 16.9376 17.9762 17.3573 17.6667 17.6667C17.3573 17.9762 16.9376 18.15 16.5 18.15ZM14.85 21.45C14.85 21.8876 15.0238 22.3073 15.3333 22.6167C15.6427 22.9262 16.0624 23.1 16.5 23.1C16.9376 23.1 17.3573 22.9262 17.6667 22.6167C17.9762 22.3073 18.15 21.8876 18.15 21.45C18.15 21.0124 17.9762 20.5927 17.6667 20.2833C17.3573 19.9739 16.9376 19.8 16.5 19.8C16.0624 19.8 15.6427 19.9739 15.3333 20.2833C15.0238 20.5927 14.85 21.0124 14.85 21.45ZM11.55 18.15C11.1124 18.15 10.6927 17.9762 10.3833 17.6667C10.0738 17.3573 9.9 16.9376 9.9 16.5C9.9 16.0624 10.0738 15.6427 10.3833 15.3333C10.6927 15.0239 11.1124 14.85 11.55 14.85C11.9876 14.85 12.4073 15.0239 12.7167 15.3333C13.0262 15.6427 13.2 16.0624 13.2 16.5C13.2 16.9376 13.0262 17.3573 12.7167 17.6667C12.4073 17.9762 11.9876 18.15 11.55 18.15ZM4.95 9.07501C4.95 7.98099 5.3846 6.93178 6.15819 6.1582C6.93177 5.38461 7.98098 4.95001 9.075 4.95001H23.925C25.019 4.95001 26.0682 5.38461 26.8418 6.1582C27.6154 6.93178 28.05 7.98099 28.05 9.07501V23.925C28.05 25.019 27.6154 26.0682 26.8418 26.8418C26.0682 27.6154 25.019 28.05 23.925 28.05H9.075C7.98098 28.05 6.93177 27.6154 6.15819 26.8418C5.3846 26.0682 4.95 25.019 4.95 23.925V9.07501ZM26.4 11.55H6.6V23.925C6.6 24.5814 6.86076 25.2109 7.32491 25.6751C7.78906 26.1393 8.41859 26.4 9.075 26.4H23.925C24.5814 26.4 25.2109 26.1393 25.6751 25.6751C26.1392 25.2109 26.4 24.5814 26.4 23.925V11.55ZM23.925 6.60001H9.075C8.41859 6.60001 7.78906 6.86077 7.32491 7.32492C6.86076 7.78908 6.6 8.4186 6.6 9.07501V9.90001H26.4V9.07501C26.4 8.4186 26.1392 7.78908 25.6751 7.32492C25.2109 6.86077 24.5814 6.60001 23.925 6.60001Z" fill="#646464"/>
</g>
</svg>
