<svg width="17" height="17" viewBox="0 0 17 17" fill="none" xmlns="http://www.w3.org/2000/svg">
<g id="simple-line-icons:plus" clip-path="url(#clip0_215_8)">
<path id="Vector" d="M8.5 0C3.80561 0 0 3.80561 0 8.5C0 13.1947 3.80561 17 8.5 17C13.1947 17 17 13.1947 17 8.5C17 3.80561 13.1947 0 8.5 0ZM8.5 15.9542C4.39902 15.9542 1.0625 12.601 1.0625 8.49997C1.0625 4.39898 4.39902 1.06247 8.5 1.06247C12.601 1.06247 15.9375 4.399 15.9375 8.49997C15.9375 12.6009 12.601 15.9542 8.5 15.9542ZM12.2188 7.96875H9.03125V4.78125C9.03125 4.488 8.79325 4.25 8.5 4.25C8.20675 4.25 7.96875 4.488 7.96875 4.78125V7.96875H4.78125C4.488 7.96875 4.25 8.20675 4.25 8.5C4.25 8.79325 4.488 9.03125 4.78125 9.03125H7.96875V12.2188C7.96875 12.512 8.20675 12.75 8.5 12.75C8.79325 12.75 9.03125 12.512 9.03125 12.2188V9.03125H12.2188C12.512 9.03125 12.75 8.79325 12.75 8.5C12.75 8.20675 12.512 7.96875 12.2188 7.96875Z" fill="black"/>
</g>
<defs>
<clipPath id="clip0_215_8">
<rect width="17" height="17" fill="white"/>
</clipPath>
</defs>
</svg>
