<svg width="9" height="8" viewBox="0 0 9 8" fill="none" xmlns="http://www.w3.org/2000/svg">
<path id="Vector" d="M8.02941 1.06667H6.75926L6.13235 0.118667C6.10814 0.0821058 6.07533 0.0521408 6.03685 0.0314376C5.99836 0.0107345 5.95539 -6.48542e-05 5.91176 2.9301e-07H3.08824C3.04461 -6.48542e-05 3.00164 0.0107345 2.96315 0.0314376C2.92467 0.0521408 2.89186 0.0821058 2.86765 0.118667L2.24029 1.06667H0.970588C0.713172 1.06667 0.466299 1.16968 0.284279 1.35305C0.102258 1.53642 0 1.78512 0 2.04444V7.02222C0 7.28155 0.102258 7.53025 0.284279 7.71362C0.466299 7.89698 0.713172 8 0.970588 8H8.02941C8.28683 8 8.5337 7.89698 8.71572 7.71362C8.89774 7.53025 9 7.28155 9 7.02222V2.04444C9 1.78512 8.89774 1.53642 8.71572 1.35305C8.5337 1.16968 8.28683 1.06667 8.02941 1.06667ZM8.47059 7.02222C8.47059 7.1401 8.42411 7.25314 8.34137 7.33649C8.25863 7.41984 8.14642 7.46667 8.02941 7.46667H0.970588C0.853581 7.46667 0.741366 7.41984 0.658629 7.33649C0.575893 7.25314 0.529412 7.1401 0.529412 7.02222V2.04444C0.529412 1.92657 0.575893 1.81352 0.658629 1.73018C0.741366 1.64683 0.853581 1.6 0.970588 1.6H2.38235C2.42598 1.60007 2.46895 1.58927 2.50743 1.56856C2.54592 1.54786 2.57873 1.51789 2.60294 1.48133L3.22985 0.533334H5.76971L6.39706 1.48133C6.42127 1.51789 6.45408 1.54786 6.49257 1.56856C6.53105 1.58927 6.57402 1.60007 6.61765 1.6H8.02941C8.14642 1.6 8.25863 1.64683 8.34137 1.73018C8.42411 1.81352 8.47059 1.92657 8.47059 2.04444V7.02222ZM4.5 2.48889C4.13352 2.48889 3.77528 2.59837 3.47056 2.80348C3.16585 3.00859 2.92835 3.30012 2.78811 3.64121C2.64786 3.9823 2.61117 4.35763 2.68266 4.71972C2.75416 5.08182 2.93063 5.41443 3.18977 5.67549C3.44891 5.93655 3.77907 6.11433 4.13851 6.18635C4.49794 6.25838 4.87051 6.22141 5.20909 6.08013C5.54767 5.93885 5.83706 5.69959 6.04066 5.39262C6.24427 5.08565 6.35294 4.72475 6.35294 4.35556C6.35294 3.86049 6.15772 3.38569 5.81023 3.03562C5.46273 2.68556 4.99143 2.48889 4.5 2.48889ZM4.5 5.68889C4.23823 5.68889 3.98234 5.61069 3.76469 5.46418C3.54703 5.31767 3.37739 5.10944 3.27722 4.8658C3.17704 4.62217 3.15083 4.35408 3.2019 4.09544C3.25297 3.83679 3.37902 3.59922 3.56412 3.41275C3.74922 3.22628 3.98505 3.09929 4.24179 3.04784C4.49853 2.9964 4.76465 3.0228 5.00649 3.12372C5.24834 3.22463 5.45504 3.39553 5.60047 3.6148C5.74591 3.83406 5.82353 4.09185 5.82353 4.35556C5.82353 4.70918 5.68409 5.04832 5.43588 5.29837C5.18767 5.54841 4.85102 5.68889 4.5 5.68889Z" fill="black"/>
</svg>
