<svg width="22" height="22" viewBox="0 0 22 22" fill="none" xmlns="http://www.w3.org/2000/svg">
<g id="iconamoon:comment-bold">
<path id="Vector" d="M11 19.25C12.6317 19.25 14.2267 18.7662 15.5835 17.8596C16.9402 16.9531 17.9976 15.6646 18.622 14.1571C19.2464 12.6497 19.4098 10.9909 19.0915 9.39051C18.7732 7.79017 17.9874 6.32016 16.8336 5.16637C15.6798 4.01259 14.2098 3.22685 12.6095 2.90853C11.0092 2.5902 9.35035 2.75357 7.84286 3.378C6.33537 4.00242 5.0469 5.05984 4.14038 6.41655C3.23385 7.77325 2.75 9.36831 2.75 11C2.75 12.364 3.08 13.6501 3.66667 14.7831L2.75 19.25L7.21692 18.3333C8.34992 18.92 9.63692 19.25 11 19.25Z" stroke="white" stroke-width="2.5" stroke-linecap="round" stroke-linejoin="round"/>
</g>
</svg>
