<svg width="33" height="33" viewBox="0 0 33 33" fill="none" xmlns="http://www.w3.org/2000/svg">
<g id="fluent:calendar-rtl-20-regular">
<path id="Vector" d="M21.45 18.15C21.0123 18.15 20.5927 17.9761 20.2832 17.6667C19.9738 17.3572 19.8 16.9376 19.8 16.5C19.8 16.0623 19.9738 15.6427 20.2832 15.3332C20.5927 15.0238 21.0123 14.85 21.45 14.85C21.8876 14.85 22.3072 15.0238 22.6167 15.3332C22.9261 15.6427 23.1 16.0623 23.1 16.5C23.1 16.9376 22.9261 17.3572 22.6167 17.6667C22.3072 17.9761 21.8876 18.15 21.45 18.15ZM19.8 21.45C19.8 21.8876 19.9738 22.3072 20.2832 22.6167C20.5927 22.9261 21.0123 23.1 21.45 23.1C21.8876 23.1 22.3072 22.9261 22.6167 22.6167C22.9261 22.3072 23.1 21.8876 23.1 21.45C23.1 21.0123 22.9261 20.5927 22.6167 20.2832C22.3072 19.9738 21.8876 19.8 21.45 19.8C21.0123 19.8 20.5927 19.9738 20.2832 20.2832C19.9738 20.5927 19.8 21.0123 19.8 21.45ZM16.5 18.15C16.0623 18.15 15.6427 17.9761 15.3332 17.6667C15.0238 17.3572 14.85 16.9376 14.85 16.5C14.85 16.0623 15.0238 15.6427 15.3332 15.3332C15.6427 15.0238 16.0623 14.85 16.5 14.85C16.9376 14.85 17.3572 15.0238 17.6667 15.3332C17.9761 15.6427 18.15 16.0623 18.15 16.5C18.15 16.9376 17.9761 17.3572 17.6667 17.6667C17.3572 17.9761 16.9376 18.15 16.5 18.15ZM14.85 21.45C14.85 21.8876 15.0238 22.3072 15.3332 22.6167C15.6427 22.9261 16.0623 23.1 16.5 23.1C16.9376 23.1 17.3572 22.9261 17.6667 22.6167C17.9761 22.3072 18.15 21.8876 18.15 21.45C18.15 21.0123 17.9761 20.5927 17.6667 20.2832C17.3572 19.9738 16.9376 19.8 16.5 19.8C16.0623 19.8 15.6427 19.9738 15.3332 20.2832C15.0238 20.5927 14.85 21.0123 14.85 21.45ZM11.55 18.15C11.1123 18.15 10.6927 17.9761 10.3832 17.6667C10.0738 17.3572 9.89995 16.9376 9.89995 16.5C9.89995 16.0623 10.0738 15.6427 10.3832 15.3332C10.6927 15.0238 11.1123 14.85 11.55 14.85C11.9876 14.85 12.4072 15.0238 12.7167 15.3332C13.0261 15.6427 13.2 16.0623 13.2 16.5C13.2 16.9376 13.0261 17.3572 12.7167 17.6667C12.4072 17.9761 11.9876 18.15 11.55 18.15ZM4.94995 9.07495C4.94995 7.98093 5.38455 6.93172 6.15814 6.15814C6.93172 5.38455 7.98093 4.94995 9.07495 4.94995H23.925C25.019 4.94995 26.0682 5.38455 26.8418 6.15814C27.6154 6.93172 28.05 7.98093 28.05 9.07495V23.925C28.05 25.019 27.6154 26.0682 26.8418 26.8418C26.0682 27.6154 25.019 28.05 23.925 28.05H9.07495C7.98093 28.05 6.93172 27.6154 6.15814 26.8418C5.38455 26.0682 4.94995 25.019 4.94995 23.925V9.07495ZM26.4 11.55H6.59995V23.925C6.59995 24.5814 6.86071 25.2109 7.32486 25.675C7.78901 26.1392 8.41854 26.4 9.07495 26.4H23.925C24.5814 26.4 25.2109 26.1392 25.675 25.675C26.1392 25.2109 26.4 24.5814 26.4 23.925V11.55ZM23.925 6.59995H9.07495C8.41854 6.59995 7.78901 6.86071 7.32486 7.32486C6.86071 7.78901 6.59995 8.41854 6.59995 9.07495V9.89995H26.4V9.07495C26.4 8.41854 26.1392 7.78901 25.675 7.32486C25.2109 6.86071 24.5814 6.59995 23.925 6.59995Z" fill="white"/>
</g>
</svg>
