<svg width="14" height="14" viewBox="0 0 14 14" fill="none" xmlns="http://www.w3.org/2000/svg">
<g id="fluent:edit-16-regular">
<path id="Vector" d="M11.5766 1.43446C11.3787 1.2365 11.1437 1.07947 10.8851 0.972337C10.6265 0.865201 10.3493 0.810059 10.0694 0.810059C9.78943 0.810059 9.51224 0.865201 9.25363 0.972337C8.99501 1.07947 8.76003 1.2365 8.56211 1.43446L2.16071 7.83587C1.85668 8.14009 1.63988 8.52034 1.53293 8.93692L0.825454 11.6904C0.80791 11.7589 0.808538 11.8308 0.827277 11.899C0.846016 11.9672 0.882216 12.0293 0.932305 12.0792C0.982394 12.1291 1.04464 12.1651 1.11289 12.1837C1.18114 12.2022 1.25305 12.2026 1.3215 12.1848L4.07414 11.4781C4.4908 11.3714 4.87109 11.1545 5.17519 10.8504L11.5766 4.44894C11.7746 4.25102 11.9316 4.01605 12.0387 3.75743C12.1459 3.49882 12.201 3.22163 12.201 2.9417C12.201 2.66177 12.1459 2.38459 12.0387 2.12597C11.9316 1.86736 11.7746 1.63238 11.5766 1.43446ZM9.13704 2.00938C9.3843 1.76212 9.71967 1.62321 10.0694 1.62321C10.419 1.62321 10.7544 1.76212 11.0017 2.00938C11.2489 2.25665 11.3879 2.59202 11.3879 2.9417C11.3879 3.29139 11.2489 3.62675 11.0017 3.87402L10.3682 4.50749L8.50356 2.64286L9.13704 2.00938ZM7.92864 3.21778L9.79328 5.08242L4.60027 10.2754C4.3989 10.4764 4.14727 10.6196 3.87165 10.6902L1.7842 11.2269L2.32091 9.13941C2.3909 8.86357 2.5342 8.61181 2.73563 8.41079L7.92864 3.21778Z" fill="#969696"/>
</g>
</svg>
