<svg width="12" height="12" viewBox="0 0 12 12" fill="none" xmlns="http://www.w3.org/2000/svg">
<g id="fluent:edit-16-regular" clip-path="url(#clip0_126_271)">
<path id="Vector" d="M10.677 1.32302C10.4944 1.14044 10.2777 0.995611 10.0392 0.8968C9.80069 0.797989 9.54504 0.747131 9.28686 0.747131C9.02868 0.747131 8.77304 0.797989 8.53452 0.8968C8.296 0.995611 8.07928 1.14044 7.89674 1.32302L1.99273 7.22702C1.71233 7.5076 1.51238 7.8583 1.41373 8.24252L0.761234 10.782C0.745053 10.8452 0.745633 10.9115 0.762915 10.9744C0.780198 11.0373 0.813586 11.0946 0.859782 11.1406C0.905979 11.1867 0.963387 11.2199 1.02634 11.237C1.08929 11.254 1.1556 11.2544 1.21873 11.238L3.75748 10.5863C4.14177 10.4878 4.49251 10.2878 4.77298 10.0073L10.677 4.10327C10.8596 3.92072 11.0044 3.70401 11.1032 3.46549C11.202 3.22697 11.2529 2.97132 11.2529 2.71314C11.2529 2.45496 11.202 2.19932 11.1032 1.9608C11.0044 1.72228 10.8596 1.50556 10.677 1.32302ZM8.42699 1.85327C8.65504 1.62521 8.96434 1.49709 9.28686 1.49709C9.60938 1.49709 9.91868 1.62521 10.1467 1.85327C10.3748 2.08132 10.5029 2.39063 10.5029 2.71314C10.5029 3.03566 10.3748 3.34496 10.1467 3.57302L9.56248 4.15727L7.84273 2.43752L8.42699 1.85327ZM7.31249 2.96777L9.03224 4.68752L4.24273 9.47702C4.05702 9.66238 3.82494 9.79447 3.57073 9.85952L1.64548 10.3545L2.14048 8.42927C2.20504 8.17487 2.33721 7.94267 2.52298 7.75727L7.31249 2.96777Z" fill="white"/>
</g>
<defs>
<clipPath id="clip0_126_271">
<rect width="12" height="12" fill="white"/>
</clipPath>
</defs>
</svg>
