<svg width="24" height="24" viewBox="0 0 24 24" fill="none" xmlns="http://www.w3.org/2000/svg">
<g id="iconamoon:heart">
<path id="Vector" d="M20.3339 13.4032L13.6948 20.2875C13.2547 20.7437 12.6578 21 12.0354 21C11.413 21 10.8161 20.7437 10.3759 20.2875L3.7369 13.4044C3.18809 12.8403 2.75214 12.1695 2.45408 11.4303C2.15601 10.6911 2.00171 9.89822 2.00001 9.09705C1.99832 8.29589 2.14928 7.50226 2.44422 6.76174C2.73916 6.02122 3.17227 5.3484 3.71869 4.78188C4.26511 4.21537 4.91407 3.76633 5.62833 3.46055C6.34258 3.15477 7.10806 2.99826 7.88081 3.00001C8.65357 3.00177 9.41838 3.16175 10.1313 3.47077C10.8443 3.7798 11.4914 4.23178 12.0354 4.80076C13.1404 3.68363 14.6254 3.06284 16.1688 3.07287C17.7122 3.0829 19.1896 3.72293 20.281 4.85433C21.3724 5.98573 21.99 7.51738 21.9999 9.1175C22.0098 10.7176 21.4112 12.2574 20.3339 13.4032Z" stroke="white" stroke-width="2" stroke-linecap="round" stroke-linejoin="round"/>
<circle id="Ellipse 4" cx="9" cy="10" r="7" fill="white"/>
<circle id="Ellipse 5" cx="15" cy="10" r="7" fill="white"/>
<path id="Polygon 1" d="M12.0942 21.0131L7.29056 15.7846L16.8506 15.7417L12.0942 21.0131Z" fill="white"/>
</g>
</svg>
