<svg width="26" height="28" viewBox="0 0 26 28" fill="none" xmlns="http://www.w3.org/2000/svg">
<g id="bi:house">
<path id="Vector" d="M14.1489 2.62499C13.8442 2.29691 13.4309 2.11261 13.0001 2.11261C12.5692 2.11261 12.1559 2.29691 11.8512 2.62499L1.0498 14.2555C0.974257 14.3368 0.914333 14.4334 0.873449 14.5397C0.832566 14.646 0.811523 14.7599 0.811523 14.875C0.811523 14.99 0.832566 15.104 0.873449 15.2103C0.914333 15.3166 0.974257 15.4131 1.0498 15.4945C1.20237 15.6588 1.40929 15.7511 1.62505 15.7511C1.73188 15.7511 1.83767 15.7284 1.93637 15.6844C2.03507 15.6404 2.12476 15.5758 2.2003 15.4945L3.25005 14.3622V23.625C3.25005 24.3212 3.50686 24.9889 3.96398 25.4811C4.4211 25.9734 5.04108 26.25 5.68755 26.25H20.3125C20.959 26.25 21.579 25.9734 22.0361 25.4811C22.4932 24.9889 22.75 24.3212 22.75 23.625V14.3622L23.7998 15.4945C23.9524 15.6588 24.1593 15.7511 24.375 15.7511C24.5908 15.7511 24.7977 15.6588 24.9503 15.4945C25.1029 15.3302 25.1886 15.1073 25.1886 14.875C25.1886 14.6426 25.1029 14.4198 24.9503 14.2555L21.125 10.1377L18.4982 7.54313C18.4982 7.31107 18.0561 7.11999 17.9037 6.9559C17.7513 6.7918 17.278 7.00009 17.0626 7.00009L17.9037 6.9559L17.0626 6.12509C16.8471 6.12509 17.2149 5.961 17.0626 6.12509C16.9102 6.28919 17.0626 5.89303 17.0626 6.12509L21.125 10.1377L14.1489 2.62499ZM21.125 12.6122V23.625C21.125 23.857 21.0394 24.0796 20.8871 24.2437C20.7347 24.4078 20.528 24.5 20.3125 24.5H5.68755C5.47206 24.5 5.2654 24.4078 5.11303 24.2437C4.96065 24.0796 4.87505 23.857 4.87505 23.625V12.6122L13.0001 3.86224L21.125 12.6122Z" fill="#646464"/>
</g>
</svg>
