<svg width="26" height="28" viewBox="0 0 26 28" fill="none" xmlns="http://www.w3.org/2000/svg">
<g id="bi:house">
<path id="Vector" d="M14.1489 2.62505C13.8441 2.29697 13.4309 2.11267 13 2.11267C12.5691 2.11267 12.1558 2.29697 11.8511 2.62505L1.04974 14.2555C0.974196 14.3369 0.914272 14.4335 0.873388 14.5398C0.832505 14.6461 0.811462 14.76 0.811462 14.875C0.811462 14.9901 0.832505 15.104 0.873388 15.2103C0.914272 15.3166 0.974196 15.4132 1.04974 15.4945C1.2023 15.6588 1.40923 15.7512 1.62499 15.7512C1.73182 15.7512 1.83761 15.7285 1.93631 15.6845C2.03501 15.6404 2.1247 15.5759 2.20024 15.4945L3.24999 14.3623V23.625C3.24999 24.3212 3.5068 24.9889 3.96392 25.4812C4.42104 25.9735 5.04102 26.25 5.68749 26.25H20.3125C20.959 26.25 21.5789 25.9735 22.0361 25.4812C22.4932 24.9889 22.75 24.3212 22.75 23.625V14.3623L23.7997 15.4945C23.9523 15.6588 24.1592 15.7512 24.375 15.7512C24.5907 15.7512 24.7977 15.6588 24.9502 15.4945C25.1028 15.3302 25.1885 15.1074 25.1885 14.875C25.1885 14.6427 25.1028 14.4198 24.9502 14.2555L21.125 10.1378L18.4981 7.54319C18.4981 7.31113 18.056 7.12005 17.9036 6.95596C17.7512 6.79186 17.278 7.00015 17.0625 7.00015L17.9036 6.95596L17.0625 6.12515C16.847 6.12515 17.2149 5.96106 17.0625 6.12515C16.9101 6.28925 17.0625 5.89309 17.0625 6.12515L21.125 10.1378L14.1489 2.62505ZM21.125 12.6123V23.625C21.125 23.8571 21.0394 24.0797 20.887 24.2438C20.7346 24.4079 20.528 24.5 20.3125 24.5H5.68749C5.472 24.5 5.26534 24.4079 5.11296 24.2438C4.96059 24.0797 4.87499 23.8571 4.87499 23.625V12.6123L13 3.8623L21.125 12.6123Z" fill="#F8F8F8"/>
</g>
</svg>
