<svg width="14" height="14" viewBox="0 0 14 14" fill="none" xmlns="http://www.w3.org/2000/svg">
<g id="octicon:mail-24">
<path id="Vector" d="M1.02083 1.75H12.9792C13.5427 1.75 14 2.20733 14 2.77083V10.9375C14 11.2082 13.8924 11.4679 13.701 11.6593C13.5096 11.8508 13.2499 11.9583 12.9792 11.9583H1.02083C0.750091 11.9583 0.490439 11.8508 0.298995 11.6593C0.107552 11.4679 0 11.2082 0 10.9375L0 2.77083C0 2.20733 0.457333 1.75 1.02083 1.75ZM0.875 4.32367V10.9375C0.875 11.018 0.940333 11.0833 1.02083 11.0833H12.9792C13.0178 11.0833 13.0549 11.068 13.0823 11.0406C13.1096 11.0133 13.125 10.9762 13.125 10.9375V4.32367L7.57167 8.07625C7.22633 8.30958 6.77367 8.30958 6.42833 8.07625L0.875 4.32367ZM0.875 2.77083V3.26783L6.91833 7.35117C6.94245 7.36747 6.97089 7.37618 7 7.37618C7.02911 7.37618 7.05755 7.36747 7.08167 7.35117L13.125 3.26783V2.77083C13.125 2.73216 13.1096 2.69506 13.0823 2.66771C13.0549 2.64036 13.0178 2.625 12.9792 2.625H1.02083C0.982156 2.625 0.945063 2.64036 0.917714 2.66771C0.890365 2.69506 0.875 2.73216 0.875 2.77083Z" fill="white"/>
</g>
</svg>
