<svg width="16" height="16" viewBox="0 0 16 16" fill="none" xmlns="http://www.w3.org/2000/svg">
<g id="mdi:pinterest">
<path id="Vector" d="M6.02671 14.36C6.66671 14.5534 7.31337 14.6667 8.00004 14.6667C9.76815 14.6667 11.4638 13.9643 12.7141 12.7141C13.9643 11.4638 14.6667 9.76815 14.6667 8.00004C14.6667 7.12456 14.4943 6.25765 14.1592 5.44882C13.8242 4.63998 13.3331 3.90505 12.7141 3.286C12.095 2.66694 11.3601 2.17588 10.5513 1.84084C9.74243 1.50581 8.87552 1.33337 8.00004 1.33337C7.12456 1.33337 6.25765 1.50581 5.44882 1.84084C4.63998 2.17588 3.90505 2.66694 3.286 3.286C2.03575 4.53624 1.33337 6.23193 1.33337 8.00004C1.33337 10.8334 3.11337 13.2667 5.62671 14.2267C5.56671 13.7067 5.50671 12.8467 5.62671 12.2534L6.39337 8.96004C6.39337 8.96004 6.20004 8.57337 6.20004 7.96004C6.20004 7.04004 6.77337 6.35337 7.42671 6.35337C8.00004 6.35337 8.26671 6.77337 8.26671 7.31337C8.26671 7.88671 7.88671 8.70671 7.69337 9.49337C7.58004 10.1467 8.04004 10.72 8.70671 10.72C9.89337 10.72 10.8134 9.45337 10.8134 7.66671C10.8134 6.06671 9.66671 4.97337 8.02004 4.97337C6.14004 4.97337 5.03337 6.37337 5.03337 7.84671C5.03337 8.42004 5.22004 9.00004 5.52671 9.38004C5.58671 9.42004 5.58671 9.47337 5.56671 9.57337L5.37337 10.3C5.37337 10.4134 5.30004 10.4534 5.18671 10.3734C4.33337 10 3.84004 8.78671 3.84004 7.80671C3.84004 5.70004 5.33337 3.78671 8.21337 3.78671C10.5067 3.78671 12.2934 5.43337 12.2934 7.62004C12.2934 9.91337 10.8734 11.7534 8.84004 11.7534C8.19337 11.7534 7.56004 11.4067 7.33337 11L6.88671 12.58C6.73337 13.1534 6.31337 13.92 6.02671 14.38V14.36Z" fill="white"/>
</g>
</svg>
