<svg width="21" height="22" viewBox="0 0 21 22" fill="none" xmlns="http://www.w3.org/2000/svg">
<g id="Group">
<path id="Vector" fill-rule="evenodd" clip-rule="evenodd" d="M10.1785 7C9.1839 7 8.23008 7.39509 7.52682 8.09835C6.82355 8.80161 6.42847 9.75544 6.42847 10.75C6.42847 11.7446 6.82355 12.6984 7.52682 13.4017C8.23008 14.1049 9.1839 14.5 10.1785 14.5C11.173 14.5 12.1269 14.1049 12.8301 13.4017C13.5334 12.6984 13.9285 11.7446 13.9285 10.75C13.9285 9.75544 13.5334 8.80161 12.8301 8.09835C12.1269 7.39509 11.173 7 10.1785 7ZM7.92847 10.75C7.92847 10.1533 8.16552 9.58097 8.58748 9.15901C9.00943 8.73705 9.58173 8.5 10.1785 8.5C10.7752 8.5 11.3475 8.73705 11.7695 9.15901C12.1914 9.58097 12.4285 10.1533 12.4285 10.75C12.4285 11.3467 12.1914 11.919 11.7695 12.341C11.3475 12.7629 10.7752 13 10.1785 13C9.58173 13 9.00943 12.7629 8.58748 12.341C8.16552 11.919 7.92847 11.3467 7.92847 10.75Z" fill="white"/>
<path id="Vector_2" fill-rule="evenodd" clip-rule="evenodd" d="M10.1535 0C9.70849 0 9.33749 -1.86265e-08 9.03349 0.02C8.72275 0.0329397 8.41629 0.0971379 8.12649 0.21C7.79274 0.34809 7.48946 0.550573 7.23397 0.805887C6.97849 1.0612 6.7758 1.36434 6.63749 1.698C6.49249 2.048 6.45349 2.418 6.43749 2.82C6.43589 2.96702 6.39697 3.11123 6.32438 3.23909C6.25179 3.36695 6.14791 3.47428 6.02249 3.551C5.89337 3.6215 5.74845 3.65803 5.60134 3.65716C5.45423 3.65628 5.30976 3.61803 5.18149 3.546C4.82549 3.358 4.48549 3.207 4.10949 3.157C3.75143 3.1099 3.3876 3.13379 3.03878 3.2273C2.68996 3.32081 2.36297 3.48212 2.07649 3.702C1.83426 3.89688 1.6258 4.13034 1.45949 4.393C1.28949 4.647 1.10349 4.968 0.881486 5.353L0.856486 5.397C0.633486 5.782 0.448486 6.103 0.314486 6.377C0.174486 6.663 0.0644857 6.945 0.0244857 7.257C-0.070914 7.97999 0.124765 8.71127 0.568486 9.29C0.799486 9.591 1.10049 9.81 1.44049 10.024C1.56725 10.0989 1.67286 10.2049 1.74738 10.3319C1.8219 10.4589 1.86289 10.6028 1.86649 10.75C1.86289 10.8972 1.8219 11.0411 1.74738 11.1681C1.67286 11.2951 1.56725 11.4011 1.44049 11.476C1.10049 11.69 0.800486 11.909 0.568486 12.21C0.348602 12.4965 0.1873 12.8235 0.0937888 13.1723C0.000277437 13.5211 -0.0236115 13.8849 0.0234858 14.243C0.0644858 14.555 0.173486 14.837 0.313486 15.123C0.448486 15.397 0.633486 15.718 0.856486 16.103L0.881486 16.147C1.10349 16.532 1.28949 16.853 1.45949 17.107C1.63649 17.37 1.82649 17.607 2.07649 17.797C2.3629 18.0171 2.68985 18.1785 3.03867 18.2722C3.3875 18.3659 3.75136 18.39 4.10949 18.343C4.48549 18.293 4.82549 18.143 5.18149 17.954C5.3096 17.8821 5.45391 17.8439 5.60084 17.843C5.74777 17.8421 5.89252 17.8786 6.02149 17.949C6.1476 18.0251 6.25214 18.1323 6.32513 18.2602C6.39812 18.3882 6.43715 18.5327 6.43849 18.68C6.45349 19.082 6.49249 19.452 6.63849 19.802C6.77658 20.1357 6.97906 20.439 7.23437 20.6945C7.48969 20.95 7.79283 21.1527 8.12649 21.291C8.41649 21.411 8.71649 21.458 9.03349 21.479C9.33749 21.5 9.70849 21.5 10.1535 21.5H10.2035C10.6485 21.5 11.0195 21.5 11.3235 21.48C11.6415 21.458 11.9405 21.411 12.2305 21.29C12.5642 21.1519 12.8675 20.9494 13.123 20.6941C13.3785 20.4388 13.5812 20.1357 13.7195 19.802C13.8645 19.452 13.9035 19.082 13.9195 18.68C13.9209 18.5328 13.9598 18.3884 14.0324 18.2603C14.105 18.1323 14.2089 18.0248 14.3345 17.948C14.4637 17.8776 14.6087 17.8413 14.7558 17.8423C14.9029 17.8434 15.0473 17.8818 15.1755 17.954C15.5315 18.142 15.8715 18.293 16.2475 18.342C16.9705 18.4374 17.7018 18.2417 18.2805 17.798C18.5305 17.606 18.7205 17.37 18.8975 17.107C19.0675 16.853 19.2535 16.532 19.4755 16.147L19.5005 16.103C19.7235 15.718 19.9085 15.397 20.0425 15.123C20.1825 14.837 20.2925 14.554 20.3325 14.243C20.4279 13.52 20.2322 12.7887 19.7885 12.21C19.5575 11.909 19.2565 11.69 18.9165 11.476C18.7897 11.4011 18.6841 11.2951 18.6096 11.1681C18.5351 11.0411 18.4941 10.8972 18.4905 10.75C18.4905 10.472 18.6425 10.196 18.9165 10.024C19.2565 9.81 19.5565 9.591 19.7885 9.29C20.0084 9.00352 20.1697 8.67653 20.2632 8.3277C20.3567 7.97888 20.3806 7.61506 20.3335 7.257C20.2859 6.94971 20.1879 6.65238 20.0435 6.377C19.8728 6.04475 19.6917 5.71792 19.5005 5.397L19.4755 5.353C19.2928 5.02709 19.1001 4.70693 18.8975 4.393C18.7312 4.13062 18.5227 3.89749 18.2805 3.703C17.9941 3.48294 17.6671 3.32146 17.3183 3.22778C16.9695 3.13409 16.6056 3.11004 16.2475 3.157C15.8715 3.207 15.5315 3.357 15.1755 3.546C15.0473 3.61786 14.903 3.65601 14.7561 3.65688C14.6092 3.65776 14.4645 3.62132 14.3355 3.551C14.2097 3.47452 14.1054 3.3673 14.0325 3.23942C13.9595 3.11154 13.9203 2.96721 13.9185 2.82C13.9035 2.418 13.8645 2.048 13.7185 1.698C13.5804 1.36425 13.3779 1.06097 13.1226 0.805486C12.8673 0.550001 12.5641 0.347314 12.2305 0.209C11.9405 0.089 11.6405 0.042 11.3235 0.021C11.0195 2.79397e-08 10.6485 0 10.2035 0H10.1535ZM8.70049 1.595C8.77749 1.563 8.89449 1.534 9.13549 1.517C9.38249 1.5 9.70249 1.5 10.1785 1.5C10.6545 1.5 10.9745 1.5 11.2215 1.517C11.4625 1.534 11.5795 1.563 11.6565 1.595C11.9635 1.722 12.2065 1.965 12.3335 2.272C12.3735 2.368 12.4065 2.519 12.4195 2.876C12.4495 3.668 12.8585 4.431 13.5845 4.85C14.3105 5.27 15.1755 5.242 15.8765 4.872C16.1925 4.705 16.3395 4.658 16.4435 4.645C16.7721 4.60158 17.1044 4.69043 17.3675 4.892C17.4335 4.943 17.5175 5.03 17.6525 5.23C17.7915 5.436 17.9515 5.713 18.1895 6.125C18.4275 6.537 18.5865 6.815 18.6955 7.037C18.8025 7.254 18.8355 7.37 18.8455 7.453C18.8889 7.78157 18.8001 8.11392 18.5985 8.377C18.5345 8.46 18.4205 8.564 18.1185 8.754C17.4465 9.176 16.9905 9.912 16.9905 10.75C16.9905 11.588 17.4465 12.324 18.1185 12.746C18.4205 12.936 18.5345 13.04 18.5985 13.123C18.8005 13.386 18.8885 13.718 18.8455 14.047C18.8355 14.13 18.8015 14.247 18.6955 14.463C18.5865 14.686 18.4275 14.963 18.1895 15.375C17.9515 15.787 17.7905 16.064 17.6525 16.27C17.5175 16.47 17.4335 16.557 17.3675 16.608C17.1044 16.8096 16.7721 16.8984 16.4435 16.855C16.3395 16.842 16.1935 16.795 15.8765 16.628C15.1765 16.258 14.3105 16.23 13.5845 16.649C12.8585 17.069 12.4495 17.832 12.4195 18.624C12.4065 18.981 12.3735 19.132 12.3335 19.228C12.2707 19.3798 12.1785 19.5177 12.0624 19.6339C11.9462 19.7501 11.8083 19.8422 11.6565 19.905C11.5795 19.937 11.4625 19.966 11.2215 19.983C10.9745 20 10.6545 20 10.1785 20C9.70249 20 9.38249 20 9.13549 19.983C8.89449 19.966 8.77749 19.937 8.70049 19.905C8.54869 19.8422 8.41076 19.7501 8.2946 19.6339C8.17843 19.5177 8.08631 19.3798 8.02349 19.228C7.98349 19.132 7.95049 18.981 7.93749 18.624C7.90749 17.832 7.49849 17.069 6.77249 16.65C6.04649 16.23 5.18149 16.258 4.48049 16.628C4.16449 16.795 4.01749 16.842 3.91349 16.855C3.58492 16.8984 3.25256 16.8096 2.98949 16.608C2.92349 16.557 2.83949 16.47 2.70449 16.27C2.5164 15.9772 2.33731 15.6787 2.16749 15.375C1.92949 14.963 1.77049 14.685 1.66149 14.463C1.55449 14.246 1.52149 14.13 1.51149 14.047C1.46807 13.7184 1.55691 13.3861 1.75849 13.123C1.82249 13.04 1.93649 12.936 2.23849 12.746C2.91049 12.324 3.36649 11.588 3.36649 10.75C3.36649 9.912 2.91049 9.176 2.23849 8.754C1.93649 8.564 1.82249 8.46 1.75849 8.377C1.55691 8.11392 1.46807 7.78157 1.51149 7.453C1.52149 7.37 1.55549 7.253 1.66149 7.037C1.77049 6.814 1.92949 6.537 2.16749 6.125C2.40549 5.713 2.56649 5.436 2.70449 5.23C2.83949 5.03 2.92349 4.943 2.98949 4.892C3.25256 4.69043 3.58492 4.60158 3.91349 4.645C4.01749 4.658 4.16349 4.705 4.48049 4.872C5.18049 5.242 6.04649 5.27 6.77249 4.85C7.49849 4.431 7.90749 3.668 7.93749 2.876C7.95049 2.519 7.98349 2.368 8.02349 2.272C8.15049 1.965 8.39349 1.722 8.70049 1.595Z" fill="white"/>
</g>
</svg>
