<svg width="29" height="29" viewBox="0 0 29 29" fill="none" xmlns="http://www.w3.org/2000/svg">
<g id="basil:search-outline">
<path id="Vector" fill-rule="evenodd" clip-rule="evenodd" d="M17.3818 18.6639C15.7532 19.9652 13.6881 20.5934 11.6107 20.4197C9.53331 20.2459 7.6013 19.2833 6.21147 17.7295C4.82165 16.1758 4.07951 14.1488 4.1375 12.065C4.19548 9.9811 5.04918 7.99855 6.52325 6.52447C7.99733 5.0504 9.97988 4.1967 12.0637 4.13872C14.1476 4.08073 16.1745 4.82287 17.7283 6.21269C19.2821 7.60252 20.2447 9.53453 20.4185 11.6119C20.5922 13.6893 19.964 15.7544 18.6627 17.3831L24.8928 23.612C24.9819 23.695 25.0533 23.795 25.1028 23.9062C25.1524 24.0174 25.179 24.1374 25.1811 24.2591C25.1833 24.3807 25.1609 24.5016 25.1153 24.6145C25.0697 24.7273 25.0019 24.8298 24.9159 24.9159C24.8298 25.0019 24.7273 25.0698 24.6144 25.1153C24.5016 25.1609 24.3807 25.1833 24.2591 25.1812C24.1374 25.179 24.0174 25.1524 23.9062 25.1028C23.795 25.0533 23.695 24.9819 23.612 24.8929L17.3818 18.6639ZM7.8046 16.7765C6.91773 15.8895 6.3137 14.7596 6.06884 13.5294C5.82399 12.2993 5.94929 11.0241 6.42893 9.86518C6.90856 8.70622 7.72099 7.71546 8.76355 7.01811C9.8061 6.32075 11.032 5.94811 12.2863 5.94726C13.5406 5.94642 14.7669 6.31741 15.8104 7.01337C16.8539 7.70932 17.6677 8.69899 18.1489 9.85729C18.6301 11.0156 18.7571 12.2906 18.5139 13.521C18.2707 14.7515 17.6682 15.8823 16.7825 16.7704L16.7765 16.7765L16.7704 16.7813C15.5803 17.9687 13.9676 18.6351 12.2865 18.6342C10.6054 18.6332 8.99341 17.9651 7.8046 16.7765Z" fill="white"/>
</g>
</svg>
