<svg width="29" height="29" viewBox="0 0 29 29" fill="none" xmlns="http://www.w3.org/2000/svg">
<g id="basil:search-outline">
<path id="Vector" fill-rule="evenodd" clip-rule="evenodd" d="M17.3818 18.6639C15.7531 19.9652 13.6881 20.5934 11.6107 20.4197C9.53325 20.2459 7.60124 19.2833 6.21141 17.7295C4.82158 16.1758 4.07945 14.1488 4.13744 12.065C4.19542 9.9811 5.04912 7.99855 6.52319 6.52447C7.99727 5.0504 9.97982 4.1967 12.0637 4.13872C14.1475 4.08073 16.1745 4.82287 17.7282 6.21269C19.282 7.60252 20.2446 9.53453 20.4184 11.6119C20.5922 13.6893 19.9639 15.7544 18.6626 17.3831L24.8928 23.612C24.9818 23.695 25.0532 23.795 25.1028 23.9062C25.1523 24.0174 25.1789 24.1374 25.1811 24.2591C25.1832 24.3807 25.1608 24.5016 25.1153 24.6145C25.0697 24.7273 25.0019 24.8298 24.9158 24.9159C24.8297 25.0019 24.7272 25.0698 24.6144 25.1153C24.5015 25.1609 24.3807 25.1833 24.259 25.1812C24.1373 25.179 24.0173 25.1524 23.9061 25.1028C23.795 25.0533 23.6949 24.9819 23.612 24.8929L17.3818 18.6639ZM7.80454 16.7765C6.91767 15.8895 6.31364 14.7596 6.06878 13.5294C5.82392 12.2993 5.94923 11.0241 6.42886 9.86518C6.9085 8.70622 7.72093 7.71546 8.76349 7.01811C9.80604 6.32075 11.0319 5.94811 12.2862 5.94726C13.5405 5.94642 14.7669 6.31741 15.8104 7.01337C16.8539 7.70932 17.6676 8.69899 18.1488 9.85729C18.63 11.0156 18.757 12.2906 18.5138 13.521C18.2706 14.7515 17.6681 15.8823 16.7825 16.7704L16.7764 16.7765L16.7704 16.7813C15.5803 17.9687 13.9676 18.6351 12.2865 18.6342C10.6054 18.6332 8.99335 17.9651 7.80454 16.7765Z" fill="#646464"/>
</g>
</svg>
