<svg width="9" height="9" viewBox="0 0 9 9" fill="none" xmlns="http://www.w3.org/2000/svg">
<g id="mdi:twitter">
<path id="Vector" d="M8.42251 2.25C8.13376 2.38125 7.82251 2.4675 7.50001 2.50875C7.83001 2.31 8.08501 1.995 8.20501 1.61625C7.89376 1.80375 7.54876 1.935 7.18501 2.01C6.88876 1.6875 6.47251 1.5 6.00001 1.5C5.11876 1.5 4.39876 2.22 4.39876 3.10875C4.39876 3.23625 4.41376 3.36 4.44001 3.47625C3.10501 3.40875 1.91626 2.7675 1.12501 1.79625C0.986265 2.0325 0.907515 2.31 0.907515 2.6025C0.907515 3.16125 1.18876 3.65625 1.62376 3.9375C1.35751 3.9375 1.11001 3.8625 0.892515 3.75V3.76125C0.892515 4.54125 1.44751 5.19375 2.18251 5.34C1.94654 5.40458 1.6988 5.41356 1.45876 5.36625C1.56062 5.68593 1.76009 5.96565 2.02915 6.1661C2.2982 6.36655 2.62331 6.47763 2.95876 6.48375C2.39013 6.93392 1.68526 7.17724 0.960015 7.17375C0.832515 7.17375 0.705015 7.16625 0.577515 7.15125C1.29001 7.60875 2.13751 7.875 3.04501 7.875C6.00001 7.875 7.62376 5.4225 7.62376 3.29625C7.62376 3.225 7.62376 3.1575 7.62001 3.08625C7.93501 2.86125 8.20501 2.57625 8.42251 2.25Z" fill="white"/>
</g>
</svg>
