<svg width="137" height="137" viewBox="0 0 137 137" fill="none" xmlns="http://www.w3.org/2000/svg">
<g id="logo" clip-path="url(#clip0_247_254)">
<path id="Vector" d="M32.5004 0.5H104.5C122.173 0.5 136.5 14.8271 136.5 32.5004V104.5C136.5 122.173 122.173 136.5 104.5 136.5H32.5004C14.8271 136.5 0.5 122.173 0.5 104.5V32.5004C0.5 14.8271 14.8271 0.5 32.5004 0.5Z" fill="black" stroke="white"/>
<g id="Group">
<path id="Vector_2" d="M21.901 107.987C20.1797 107.987 18.7529 107.648 17.6205 106.991C16.488 106.334 15.6727 105.36 15.2197 104.115C14.7668 102.869 14.6535 101.374 14.9026 99.6755L15.9218 93.0622C16.2163 91.3409 16.8051 89.8687 17.6658 88.6457C18.5264 87.4227 19.6588 86.4488 21.0177 85.7694C22.3766 85.0899 23.9167 84.7502 25.6153 84.7502C28.1066 84.7502 30.0091 85.4523 31.3001 86.8565C32.591 88.2607 33.0666 90.1405 32.7043 92.4959H30.0091C30.2582 90.82 29.9412 89.5064 29.0805 88.5778C28.2199 87.6492 26.9289 87.1962 25.185 87.1962C23.4411 87.1962 21.9463 87.7171 20.7912 88.7137C19.6135 89.7328 18.9114 91.1823 18.6396 93.0622L17.5752 99.6755C17.2807 101.533 17.5525 102.959 18.3905 104.001C19.2285 105.043 20.5421 105.541 22.3087 105.541C24.0752 105.541 25.4794 105.066 26.6345 104.137C27.7896 103.209 28.4917 101.895 28.7861 100.242H31.4813C31.0736 102.597 30.0091 104.5 28.2652 105.881C26.5213 107.285 24.415 107.987 21.901 107.987Z" fill="white"/>
<path id="Vector_3" d="M46.9501 107.58C45.0703 107.58 43.6887 107.059 42.7601 106.04C41.8542 104.998 41.5371 103.571 41.8542 101.759L45.2288 80.2658H38.2531L38.6608 77.8198H48.3316L44.5494 101.759C44.3682 102.846 44.5041 103.684 45.0023 104.273C45.5006 104.862 46.2706 105.156 47.3351 105.156H54.6279L54.2655 107.602H46.9727L46.9501 107.58Z" fill="white"/>
<path id="Vector_4" d="M66.6315 107.987C64.9782 107.987 63.574 107.648 62.4416 106.991C61.3091 106.334 60.5164 105.36 60.0635 104.115C59.6105 102.869 59.4973 101.374 59.7464 99.6755L60.7656 93.0622C61.06 91.3409 61.6489 89.8687 62.4869 88.6457C63.3248 87.4227 64.4573 86.4488 65.8162 85.7694C67.1751 85.0899 68.6925 84.7502 70.3458 84.7502C71.9992 84.7502 73.426 85.0899 74.5358 85.7694C75.6456 86.4488 76.4382 87.4001 76.9139 88.6457C77.3895 89.8914 77.4801 91.3635 77.2083 93.0622L76.1891 99.6755C75.9173 101.397 75.3511 102.869 74.4678 104.115C73.6072 105.36 72.4974 106.311 71.1385 106.991C69.7796 107.67 68.2848 107.987 66.5862 107.987H66.6315ZM66.9939 105.632C68.7605 105.632 70.2099 105.111 71.3424 104.092C72.4748 103.05 73.1995 101.601 73.5166 99.6981L74.5358 93.0848C74.8529 91.1823 74.6264 89.7102 73.811 88.691C72.9957 87.6492 71.7274 87.1509 69.9835 87.1509C68.2395 87.1509 66.8127 87.6718 65.6576 88.691C64.5026 89.7102 63.7778 91.1823 63.4607 93.0848L62.4416 99.6981C62.1471 101.601 62.3963 103.073 63.189 104.092C63.9816 105.134 65.2726 105.632 66.9939 105.632Z" fill="white"/>
<path id="Vector_5" d="M89.0081 107.987C86.5394 107.987 84.6823 107.24 83.4819 105.723C82.2815 104.205 81.8739 102.167 82.2815 99.5849L84.569 85.1579H87.2642L84.9767 99.5849C84.6823 101.465 84.9314 102.937 85.7014 103.979C86.4941 105.043 87.7171 105.564 89.4158 105.564C91.1144 105.564 92.5412 105.043 93.6737 103.979C94.8061 102.914 95.5308 101.442 95.8479 99.5849L98.0901 85.1579H100.785L98.5431 99.5849C98.2713 101.306 97.7051 102.778 96.8218 104.047C95.9611 105.315 94.8514 106.289 93.5151 106.968C92.1789 107.648 90.6841 107.987 88.9854 107.987H89.0081Z" fill="white"/>
<path id="Vector_6" d="M114.012 107.58C112.223 107.58 110.909 107.104 110.071 106.176C109.233 105.247 108.961 103.911 109.233 102.167L111.566 87.6039H105.134L105.496 85.1579H111.928L112.902 79.0428H115.597L114.623 85.1579H123.705L123.343 87.6039H114.261L111.928 102.167C111.634 104.16 112.449 105.134 114.374 105.134H120.127L119.765 107.58H114.012Z" fill="white"/>
</g>
</g>
<defs>
<clipPath id="clip0_247_254">
<rect width="137" height="137" fill="white"/>
</clipPath>
</defs>
</svg>
